<?xml version="1.0" encoding="UTF-8"?>
<svg id="Layer_2" data-name="Layer 2" xmlns="http://www.w3.org/2000/svg" width="994.4073" height="240.1662" viewBox="0 0 994.4073 240.1662">
  <defs>
    <style>
      .cls-1 {
        fill: #00280e;
      }
    </style>
  </defs>
  <g id="Layer_2_copy" data-name="Layer 2 copy">
    <g>
      <path class="cls-1" d="M159.8669,0c1.6587,1.783-6.6585,11.4523-8.1729,14.3167-16.0138,30.2889-54.249,174.1431-84.0891,205.4492-13.3812,14.6988-35.4685,26.4271-55.3241,17.0295-16.6429-7.8771-16.6435-35.2011,1.6741-40.1773-.7405,12.8913,8.4111,18.5463,20.4204,16.908,11.7547-1.6036,20.9474-16.3251,26.1058-25.8875C93.8198,117.2758,121.8646,20.4873,121.8646,20.4873c-16.7649-.4809-36.9621,6.9109-46.4049,21.5953-6.6181,10.2916-12.5865,30.8619,4.1373,34.6872,5.4426,1.2449,11.2159-2.2801,4.7079,7.1579-8.9635,12.999-31.6438,14.4912-38.6187-1.246-8.2578-18.6316,3.2365-44.1059,17.7157-56.6569C89.3977,3.4909,127.7375,4.8752,159.8669,0Z"/>
      <path class="cls-1" d="M551.4197,39.0184c2.1058.3559,3.0744.5442,4.0323.7632,27.2905,6.238,55.1657,24.4671,45.5069,56.5414-5.4864,18.2191-22.0492,28.1631-40.0086,31.4965l11.6863,5.7937c46.3179,30.7614,13.9209,84.8133-30.852,94.5354-22.2918,4.8405-45.4659-.4753-65.1962-11.1926-13.3812,14.6988-35.4685,26.4271-55.3241,17.0295-16.6429-7.8771-16.6435-35.2011,1.6741-40.1773-.7405,12.8913,8.4111,18.5463,20.4204,16.908,11.7547-1.6036,20.9474-16.3251,26.1058-25.8875,19.3814-43.4737,35.0011-88.6268,53.4882-132.5267.3917-2.1095-.991-1.6374-2.4899-1.4878-29.3427,2.9272-64.4385,18.5864-72.053,49.9608-2.8657,11.8077,1.0996,27.48,14.4717,30.5932,2.9024.6757,9.024-.6402,9.0723,2.8928-13.816,23.6157-47.178,14.2074-50.7525-12.2126-3.2712-24.1781,9.4672-46.012,27.2684-61.2144,22.038-18.8207,51.8784-25.2605,80.3737-24.1295,0,0,10.4307.2611,22.5762,2.314ZM518.9428,121.807h23.5c6.7606,0,17.7031-9.1199,21.3376-14.6624,12.9389-19.7312,9.6443-48.2594-15.3103-55.3609l-29.5273,70.0233ZM484.9446,206.7923c25.8692,13.2841,59.5182,8.498,73.5163-18.9671,17.4971-34.3303-10.9369-57.8726-44.2797-50.7867-7.1889,24.2717-16.7908,47.7433-29.2366,69.7538Z"/>
      <path class="cls-1" d="M838.7313,36.817l-40.0733,123.4927.9781,5.0947c10.684,6.3541,24.8029-13.3785,28.2863-21.9066,7.3721-18.0485,7.9659-29.7702,24.2831-43.7169,11.8179-10.101,40.1522-21.3588,49.3585-3.3063,12.6983,24.8999-26.6992,54.4428-49.8385,52.3272-3.33,24.4443,19.4871,18.6004,32.915,9.4141,13.5475-9.2681,24.0575-25.6209,30.558-40.442,1.9392-4.4213,8.2691-19.8359,8.3467-23.6654.044-2.171-4.6828-4.0254-3.731-11.7092,1.9078-15.3999,25.8338-23.205,22.8635-1.1433-.3458,2.5685-3.3824,4.8122-.9706,7.0662,1.579,1.4757,10.1369,3.5487,12.5247,3.5577,6.5358.0247,20.9695-8.1866,23.3065,2.6565,1.8218,8.4527-11.4845,26.9256-15.3517,35.2257-2.5938,5.5671-12.1778,25.065-1.9256,27.0219,12.145,2.3182,23.9394-15.7616,29.4569-24.5161,9.1092-1.0797,2.5574,8.9082.1852,13.2107-8.5119,15.4381-31.0585,42.6604-51.0948,30.7516-20.9353-12.4431,5.1473-55.4445,11.9338-70.9126l-16.999-3.5147c-10.5883,33.7533-38.5607,83.7147-79.5612,82.0451-11.6825-.4757-22.5935-5.7815-26.9808-17.012-.8953-2.2919.7741-5.7897-2.4507-5.0215-10.9961,23.8317-50.9971,43.9434-54.5139,3.9975-10.2381,12.8757-32.3338,33.998-49.8437,22.8337-8.0946-5.1611-8.4316-13.1138-7.1568-21.8342-9.4955,12.7442-26.3664,31.6559-43.8945,29.8827-8.1553-.825-15.0667-7.3754-14.6146-15.8864-1.3761-.259-1.2797-.2167-2.0833.6396-4.5288,4.8257-7.0776,8.8524-13.0054,12.766-20.905,13.8022-41.9463,5.4481-34.4167-21.4168l22.492-65.508,25.0114-2.4782-21.7416,65.7602.6705,7.5702c10.8514,5.901,20.1376-8.7157,25.6354-16.2764l20.5495-58.9444,25.8889-2.1069-22.9655,68.6073c-.6081,6.7256,4.4831,7.2382,9.7987,5.7095,7.809-2.2459,26.3665-25.2336,30.0468-32.9471,4.5561-9.5489,5.8501-21.112,10.1327-30.8672l-13.999,1.4906,4.6229-13.8668,14.2411-1.2568,11.7522-34.75,25.3701-2.1196-11.9956,34.9838,18.9969-.9847-3.9772,12.5146-18.8812,1.6185c-4.1744,15.0558-11.2949,30.3203-15.1556,45.3446-2.1068,8.1987-5.8768,19.0522,7.2935,16.2842,8.5323-1.7933,28.1586-24.8925,31.9151-33.0755l31.2916-97.7084,26.5164-2.9733ZM882.3997,98.0674c-11.3179.4173-26.7718,26.8121-27.9844,36.962-.5826,4.8761,4.4862,1.595,7.3431.3045,8.9457-4.041,23.6025-19.1767,24.8839-29.1134.473-3.6679.6046-8.3317-4.2427-8.153Z"/>
      <path class="cls-1" d="M385.7091,13.9082l-24.9858,76.9887c2.7101-2.2003,4.5021-6.088,6.9427-8.5421,5.4129-5.4428,16.9126-13.62,24.2308-15.7694,26.0045-7.6376,32.6219,15.3521,20.2298,34.2299-7.7849,11.8594-20.9658,15.8518-33.19,21.5386,3.5325,20.3302,15.4215,30.0671,33.7876,15.059,10.4708-8.5564,7.1348-33.7491,9.8117-29.8127,2.8822,4.2384,7.4506,33.3195-8.898,47.9503-6.4923,5.8101-16.5307,9.8051-25.3851,10.3828-24.3872,1.5911-30.4325-19.6096-35.0194-39.0504l-3.9961-1.0183-13.5067,40.5548-26.0126,2.4771,4.9818-16.5088-1.9678-.4781c-5.337,12.5934-29.2473,28.7063-41.44,16.9136-6.8805-6.6547-3.9793-16.7237-1.8406-24.6829,3.3955-12.6365,9.7063-25.2337,13.0463-38.0105-3.7701-14.7399-18.655,1.1216-22.9782,8.0786-10.8516,17.4629-13.7449,41.3395-21.7651,60.2349l-26.0358,2.4538,3.4995-13.9901c-11.5943,15.7332-43.0598,30.6765-46.5096.9962-1.3762-.2596-1.2797-.2167-2.0832.6395-4.9034,5.2246-8.6874,10.8027-15.0003,14.7711-12.312,7.7395-31.7209,7.4065-33.8258-9.9963-.8684-7.1802,3.5306-19.8821,5.6476-27.1818,5.02-17.3092,11.5531-34.4465,17.9268-51.2783l25.3392-.9454-21.7404,64.7495c-1.9148,13.577,10.9756,8.4789,17.2811,2.2809,16.8829-16.5951,19.1858-48.5725,30.0375-68.9625l25.4218-2.0679c-4.8472,13.3186-9.8531,26.7448-14.2709,40.2188-1.6686,5.089-9.1515,25.236-8.2994,28.8097.188.7885,1.3465,2.5665,1.998,3.0341,8.1356,5.8399,23.407-13.9961,26.7404-20.4048,3.9565-7.6067,16.4068-52.6138,18.7911-54.2089l25.0373-1.4537-4.5006,14.9904c6.9155-12.1848,41.0262-31.113,47.216-10.2093,3.6772,12.4184-11.6503,40.6247-14.9907,54.4254-.8711,3.5991-2.8666,9.9797,2.25,11.3911,7.4516,2.0555,23.8325-21.1899,26.5159-27.616l34.6569-108.8445,26.8521-2.1361ZM394.4719,86.1428c-4.708-4.7044-17.6549,5.0618-21.6576,8.3603-7.3192,6.0315-12.6863,13.7185-18.1008,21.3889,13.0864-.1387,35.6819-7.768,40.0564-21.4269.7765-2.4246,1.7415-6.2844-.298-8.3223Z"/>
    </g>
  </g>
</svg>
